<svg width="48" height="48" viewBox="0 0 48 48" fill="none" xmlns="http://www.w3.org/2000/svg">
<circle cx="23.9996" cy="24" r="24" fill="#455287"/>
<circle cx="23.9996" cy="24" r="23.5" stroke="#11141A" stroke-opacity="0.1"/>
<path opacity="0.5" fill-rule="evenodd" clip-rule="evenodd" d="M42 24C42 14.0589 33.9411 6 24 6C22.8954 6 22 5.10457 22 4C22 2.89543 22.8954 2 24 2C36.1503 2 46 11.8497 46 24L42 24Z" fill="url(#paint0_linear_472_5733)"/>
<path opacity="0.5" fill-rule="evenodd" clip-rule="evenodd" d="M24 6C14.0589 6 6 14.0589 6 24C6 25.1046 5.10457 26 4 26C2.89543 26 2 25.1046 2 24C2 11.8497 11.8497 2 24 2V6Z" fill="url(#paint1_linear_472_5733)"/>
<path opacity="0.5" fill-rule="evenodd" clip-rule="evenodd" d="M6 24C6 33.9411 14.0589 42 24 42C25.1046 42 26 42.8954 26 44C26 45.1046 25.1046 46 24 46C11.8497 46 2 36.1503 2 24L6 24Z" fill="url(#paint2_linear_472_5733)"/>
<path opacity="0.5" fill-rule="evenodd" clip-rule="evenodd" d="M24 42C33.9411 42 42 33.9411 42 24C42 22.8954 42.8954 22 44 22C45.1046 22 46 22.8954 46 24C46 36.1503 36.1503 46 24 46L24 42Z" fill="url(#paint3_linear_472_5733)"/>
<path d="M11.7836 24L24.0018 4.8L36.2199 24L24.0018 30.9818L11.7836 24Z" fill="white"/>
<path d="M24.0018 4.8L36.22 24L24.0018 30.9818V4.8Z" fill="#CBCBCB"/>
<path d="M11.7836 26.6182L24.0018 33.6L36.2199 26.6182L24.0018 43.2L11.7836 26.6182Z" fill="white"/>
<path d="M24.0018 33.6L36.2199 26.6182L24.0018 43.2V33.6ZM11.7836 24L24.0018 18.7636L36.2199 24L24.0018 30.9818L11.7836 24Z" fill="#CBCBCB"/>
<path d="M24.0018 18.7636L36.22 24L24.0018 30.9818V18.7636Z" fill="#808080"/>
<defs>
<linearGradient id="paint0_linear_472_5733" x1="44" y1="22" x2="24" y2="4.5" gradientUnits="userSpaceOnUse">
<stop stop-color="white" stop-opacity="0"/>
<stop offset="1" stop-color="white"/>
</linearGradient>
<linearGradient id="paint1_linear_472_5733" x1="22" y1="4" x2="4.5" y2="24" gradientUnits="userSpaceOnUse">
<stop stop-color="white" stop-opacity="0"/>
<stop offset="1" stop-color="white"/>
</linearGradient>
<linearGradient id="paint2_linear_472_5733" x1="4" y1="26" x2="24" y2="43.5" gradientUnits="userSpaceOnUse">
<stop stop-color="white" stop-opacity="0"/>
<stop offset="1" stop-color="white"/>
</linearGradient>
<linearGradient id="paint3_linear_472_5733" x1="26" y1="44" x2="43.5" y2="24" gradientUnits="userSpaceOnUse">
<stop stop-color="white" stop-opacity="0"/>
<stop offset="1" stop-color="white"/>
</linearGradient>
</defs>
</svg>
