<svg width="48" height="48" viewBox="0 0 48 48" fill="none" xmlns="http://www.w3.org/2000/svg">
<circle cx="24" cy="24" r="24" fill="#2A9991"/>
<path d="M16.8168 36.8548L17.6966 40.9996H19.5582L17.9108 33.9093C17.546 34.891 17.1816 35.8731 16.8168 36.8548Z" fill="#191919"/>
<path d="M28.3463 32.8573C29.5716 33.9139 30.7974 34.9705 32.0227 36.0276L31.3646 40.9996H32.9767L33.7985 35.0905L29.8616 31.8895C29.3562 32.2123 28.8513 32.5346 28.3463 32.8573Z" fill="#191919"/>
<path d="M34.8761 29.9653L35.7522 25.704C35.1109 25.1452 34.4696 24.5864 33.8288 24.0275C34.3741 23.8146 36.1755 23.0332 37.3091 21.0332C37.6689 20.3983 38.6581 18.6878 38.1086 16.657C37.8111 15.5575 37.1845 14.8127 36.8041 14.4269C36.8955 15.0534 37.1265 17.1847 35.8363 19.3501C34.7402 21.1906 33.1614 22.0212 32.5449 22.3065H23.6903L17.376 15.0282C16.5857 15.9855 14.8946 16.2834 14.8946 16.2834C15.4093 16.0626 15.8896 15.7688 16.3206 15.4111C17.1336 14.7357 17.5876 13.9817 17.8266 13.5011C16.7717 13.8399 15.6907 14.15 14.5824 14.4281C14.5277 14.442 14.473 14.4555 14.4183 14.4689C14.3968 13.7763 14.4603 12.4904 15.2333 11.2457C15.3225 11.1022 15.676 10.5493 16.3539 9.96652C20.7486 6.18911 25.8216 6.51606 25.8216 6.51606C30.632 6.82618 33.7299 10.2367 33.8586 10.0507C33.9912 9.85964 31.1669 6.33513 26.6211 5.29578C20.6253 3.92486 14.6733 7.59538 12.7772 10.6398C12.1527 11.6425 11.4799 12.7231 11.3886 14.0061C11.3697 14.2695 11.3234 15.2773 11.203 17.2201V17.2217C11.076 19.2752 10.6463 20.9886 10 22.4218L12.8193 22.5481C13.0524 21.9855 13.2855 21.4233 13.519 20.8607L15.9255 18.8628L13.886 21.1813V23.2903L13.8822 23.2933V26.5144C13.8927 26.7774 13.9028 27.0404 13.9133 27.303C15.1046 26.0107 16.2962 24.7185 17.4875 23.4267H20.6177L17.6916 23.7393L14.0648 27.8007L14.9666 34.1525L12.9741 40.9996H14.7452L16.7456 35.8517L17.9007 32.8801L18.4688 31.4183L19.9516 27.5853L19.2022 31.5054L23.4235 32.9836L28.0509 32.5556L29.5784 31.5592L27.3238 29.2541L29.4113 30.8346L30.003 31.2823L33.9133 34.2691L35.7699 35.6871L35.4067 41H36.9051L37.3491 35.9198L34.8761 29.9653Z" fill="#191919"/>
</svg>
