<svg width="48" height="48" viewBox="0 0 48 48" fill="none" xmlns="http://www.w3.org/2000/svg">
<circle cx="24" cy="24" r="23.5" fill="#FCFCFC" stroke="#F3F4F5"/>
<path d="M21.5767 38.1042C29.6136 38.1042 36.1288 31.589 36.1288 23.5521C36.1288 15.5152 29.6136 9 21.5767 9C13.5397 9 7.02454 15.5152 7.02454 23.5521C7.02454 31.589 13.5397 38.1042 21.5767 38.1042Z" fill="#2EB6EA"/>
<path d="M21.4975 38.1042C7.02439 38.1042 1.31233 19.0641 14.0964 11.04C12.576 26.9536 20.6636 27.3056 28.1685 26.9536C40.7442 26.3638 40.7526 38.1042 40.7526 38.1042H21.4975Z" fill="#1542CD"/>
<path fill-rule="evenodd" clip-rule="evenodd" d="M35.3319 28.3126C33.1425 33.9239 27.7586 37.9364 21.4155 38.1151C21.5646 38.1192 21.7147 38.1213 21.8657 38.1213H40.9999C40.9999 38.1213 40.995 31.24 35.3319 28.3126Z" fill="#745DDF"/>
</svg>
