<?xml version="1.0" encoding="utf-8"?>
<!-- Generator: Adobe Illustrator 27.5.0, SVG Export Plug-In . SVG Version: 6.00 Build 0)  -->
<svg version="1.1" id="Layer_1" xmlns="http://www.w3.org/2000/svg" xmlns:xlink="http://www.w3.org/1999/xlink" x="0px" y="0px"
	 viewBox="0 0 48 48" style="enable-background:new 0 0 48 48;" xml:space="preserve">
<style type="text/css">
	.st0{fill:url(#SVGID_1_);}
	.st1{fill-rule:evenodd;clip-rule:evenodd;fill:#9CA2FF;}
	.st2{fill:#FFFFFF;}
</style>
<linearGradient id="SVGID_1_" gradientUnits="userSpaceOnUse" x1="24" y1="47.8898" x2="24" y2="-0.1102" gradientTransform="matrix(1 0 0 -1 0 47.8898)">
	<stop  offset="0" style="stop-color:#6F78F6"/>
	<stop  offset="0.6615" style="stop-color:#2830E5"/>
</linearGradient>
<circle class="st0" cx="24" cy="24" r="24"/>
<path class="st1" d="M48,24.8c0-0.2,0-0.5,0-0.8C48,10.7,37.3,0,24,0S0,10.7,0,24c0,0.3,0,0.5,0,0.8C0.4,11.8,11,1.5,24,1.5
	S47.6,11.8,48,24.8z"/>
<path class="st2" d="M31.1,13.1l2,1.2c0,0-3.2,5-3.2,9S34.5,34,34.5,34l-1.9,1.3c0,0-5.2-6.3-9.1-6.3s-6.7,3.7-6.7,3.7L15.2,31
	c0,0,3-3.1,3-5.7s-5-7.7-5-7.7l1.6-1.6c0,0,5,3.6,7.8,3.6C26.7,19.7,31.1,13.1,31.1,13.1z"/>
</svg>
