<svg width="48" height="48" viewBox="0 0 48 48" fill="none" xmlns="http://www.w3.org/2000/svg">
<circle cx="24" cy="24" r="24" fill="#4248FF"/>
<path fill-rule="evenodd" clip-rule="evenodd" d="M41.5576 27.7154C41.5043 25.4652 40.6479 23.3078 39.1427 21.6321L29.8672 10.5336C29.1001 9.70664 28.1647 9.05332 27.124 8.61678C26.0831 8.18024 24.9609 7.9714 23.8325 8.00315H23.7307C22.565 7.97983 21.4085 8.21348 20.3438 8.68821C19.2792 9.16246 18.3326 9.86638 17.5716 10.7484L8.57332 21.6321C6.93266 23.3797 6.01355 25.681 6 28.0766C6.03394 31.55 8.16613 34.8092 11.8424 37.0176C15.0435 38.9434 19.2344 40 23.6346 40H23.9117C33.8658 39.8869 41.6255 34.4986 41.5576 27.7154ZM27.7778 13.9965C27.7778 12.5494 26.0086 11.3906 23.8213 11.3906H23.7479C21.5323 11.4134 19.7632 12.6343 19.7632 14.0813C19.7632 15.5283 21.5323 16.6866 23.7196 16.6866H23.7875C26.0031 16.6643 27.7778 15.443 27.7778 13.9965ZM17.0548 16.6653C16.5675 17.2933 16.2985 17.9953 16.3099 18.7309C16.3494 21.2857 19.6275 23.3261 23.697 23.3261H23.8214C27.9474 23.2863 31.2878 21.1274 31.2482 18.5781C31.237 17.8524 30.963 17.1668 30.483 16.5582C29.3301 18.6258 26.8222 20.045 23.8156 20.0783H23.7139C20.7403 20.0783 18.2186 18.7131 17.0548 16.6653ZM12.8509 23.3742C12.8439 22.6206 13.0447 21.8914 13.4207 21.2083C14.7784 24.4634 18.7541 26.7172 23.697 26.7172H23.861C28.7536 26.6675 32.7736 24.339 34.1395 21.0823C34.5014 21.739 34.7006 22.4425 34.7074 23.1763C34.7412 26.8392 29.8805 29.9193 23.844 29.9589H23.6632C17.7116 29.9589 12.8848 27.0311 12.8509 23.3742ZM9.85508 25.7949C9.54576 26.5133 9.38436 27.2643 9.39168 28.0352C9.43689 32.7994 15.7899 36.6092 23.6238 36.6092H23.8667C31.8135 36.5299 38.2117 32.5117 38.1664 27.7469C38.1595 27.0088 38.0011 26.2939 37.7094 25.6123C36.23 30.0542 30.698 33.3009 23.8781 33.3729H23.6632C16.7895 33.3729 11.3319 30.2353 9.85508 25.7949Z" fill="white"/>
</svg>
