<svg width="48" height="48" viewBox="0 0 48 48" fill="none" xmlns="http://www.w3.org/2000/svg">
<circle cx="24" cy="24" r="24" fill="#FFA36A"/>
<circle cx="24" cy="24" r="24" fill="url(#paint0_radial_472_5735)"/>
<path opacity="0.2" d="M23 48L44 15L46 17.5L46.5 21.5L29.5 47L23 48Z" fill="#FF5C59"/>
<path opacity="0.1" d="M37 20L33 3C33.8333 2.33333 28.5 1 24 1C15 1 8.5 6.66667 6.5 9.5L0.5 22.5L2 28L37 20Z" fill="white"/>
<path opacity="0.2" d="M11 12.5L18 1.5H23L12.5 20L11 12.5Z" fill="#FF5C59"/>
<path d="M24.5976 18.4574C23.7887 19.2663 23.0765 20.1055 22.4797 20.939L19.1192 21.6986C19.0775 21.7081 19.0377 21.7308 19.0093 21.7649L16.9123 24.1859C16.8309 24.2787 16.8725 24.4265 16.99 24.4625L20.3676 25.5328C20.2785 26.1693 20.3202 26.7319 20.5059 27.1903L19.4488 28.2473C19.3617 28.3345 19.3617 28.4765 19.4488 28.5637L20.1611 29.276C20.2482 29.3631 20.3903 29.3631 20.4774 29.276L21.5345 28.2189C21.991 28.4046 22.5555 28.4462 23.192 28.3572L24.2623 31.7348C24.3002 31.8522 24.4461 31.8939 24.5389 31.8125L26.9598 29.7154C26.992 29.687 27.0148 29.6491 27.0261 29.6056L27.7858 26.245C28.6174 25.6464 29.4566 24.936 30.2673 24.1272C33.8685 20.526 34.4216 15.2428 33.9518 14.773C33.482 14.3032 28.1987 14.8582 24.5976 18.4574ZM28.3446 22.9527C27.6342 23.6631 26.4806 23.6631 25.7702 22.9527C25.0598 22.2423 25.0598 21.0887 25.7702 20.3783C26.4806 19.6679 27.6342 19.6679 28.3446 20.3783C29.055 21.0887 29.055 22.2423 28.3446 22.9527Z" fill="#E43B2A"/>
<path d="M24.4007 18.2554C23.5918 19.0643 22.8796 19.9035 22.2828 20.737L18.9223 21.4966C18.8806 21.5061 18.8408 21.5288 18.8124 21.5629L16.7154 23.9839C16.634 24.0767 16.6756 24.2245 16.7931 24.2605L20.1707 25.3308C20.0816 25.9673 20.1233 26.5299 20.309 26.9883L19.2519 28.0453C19.1648 28.1325 19.1648 28.2746 19.2519 28.3617L19.9642 29.074C20.0513 29.1611 20.1934 29.1611 20.2805 29.074L21.3376 28.0169C21.7941 28.2026 22.3586 28.2442 22.9951 28.1552L24.0654 31.5328C24.1033 31.6502 24.2492 31.6919 24.342 31.6105L26.7629 29.5134C26.7951 29.485 26.8179 29.4471 26.8292 29.4036L27.5889 26.043C28.4205 25.4444 29.2597 24.734 30.0704 23.9252C33.6716 20.3241 34.2247 15.0408 33.7549 14.571C33.2851 14.1012 28.0018 14.6562 24.4007 18.2554ZM28.1477 22.7507C27.4373 23.4611 26.2837 23.4611 25.5733 22.7507C24.8629 22.0403 24.8629 20.8867 25.5733 20.1763C26.2837 19.4659 27.4373 19.4659 28.1477 20.1763C28.8581 20.8867 28.8581 22.0403 28.1477 22.7507Z" fill="white"/>
<path d="M18.157 30.167C17.924 29.934 17.5451 29.934 17.3121 30.167L7.54492 39.9342C7.82339 40.2183 8.10943 40.4968 8.40305 40.7658L18.157 31.0119C18.39 30.7789 18.39 30.4 18.157 30.167Z" fill="white"/>
<path d="M17.9751 33.4423C17.7421 33.2093 17.3632 33.2093 17.1302 33.4423L9.14941 41.4231C9.4563 41.6807 9.76886 41.9327 10.089 42.1733L17.9751 34.2872C18.2081 34.0542 18.2081 33.6753 17.9751 33.4423Z" fill="white"/>
<path d="M14.8816 30.3507C14.6486 30.1177 14.2697 30.1177 14.0367 30.3507L6.08813 38.2993C6.34008 38.61 6.59771 38.915 6.86481 39.2124L14.8816 31.1956C15.1146 30.9626 15.1146 30.5837 14.8816 30.3507Z" fill="white"/>
<path fill-rule="evenodd" clip-rule="evenodd" d="M24 46C36.1503 46 46 36.1503 46 24C46 11.8497 36.1503 2 24 2C11.8497 2 2 11.8497 2 24C2 36.1503 11.8497 46 24 46ZM24 48C37.2548 48 48 37.2548 48 24C48 10.7452 37.2548 0 24 0C10.7452 0 0 10.7452 0 24C0 37.2548 10.7452 48 24 48Z" fill="#FFD48A"/>
<defs>
<radialGradient id="paint0_radial_472_5735" cx="0" cy="0" r="1" gradientUnits="userSpaceOnUse" gradientTransform="translate(24 24) rotate(90) scale(24)">
<stop offset="0.796875" stop-color="#FF5C59" stop-opacity="0"/>
<stop offset="1" stop-color="#FF5C59"/>
</radialGradient>
</defs>
</svg>
