<svg width="48" height="48" viewBox="0 0 48 48" fill="none" xmlns="http://www.w3.org/2000/svg">
<circle cx="24" cy="24" r="24" fill="#FFA36A"/>
<circle cx="24" cy="24" r="24" fill="url(#paint0_radial_472_5734)"/>
<path opacity="0.2" d="M23 48L44 15L46 17.5L46.5 21.5L29.5 47L23 48Z" fill="#FF5C59"/>
<path opacity="0.1" d="M37 20L33 3C33.8333 2.33333 28.5 1 24 1C15 1 8.5 6.66667 6.5 9.5L0.5 22.5L2 28L37 20Z" fill="white"/>
<path opacity="0.2" d="M11 12.5L18 1.5H23L12.5 20L11 12.5Z" fill="#FF5C59"/>
<path fill-rule="evenodd" clip-rule="evenodd" d="M24 46C36.1503 46 46 36.1503 46 24C46 11.8497 36.1503 2 24 2C11.8497 2 2 11.8497 2 24C2 36.1503 11.8497 46 24 46ZM24 48C37.2548 48 48 37.2548 48 24C48 10.7452 37.2548 0 24 0C10.7452 0 0 10.7452 0 24C0 37.2548 10.7452 48 24 48Z" fill="#FFD48A"/>
<g filter="url(#filter0_d_472_5734)">
<path d="M14.95 24L23.9863 9.8L33.0227 24L23.9863 29.1636L14.95 24Z" fill="white"/>
<path d="M14.95 25.9363L23.9863 31.1L33.0227 25.9363L23.9863 38.2L14.95 25.9363Z" fill="white"/>
</g>
<defs>
<filter id="filter0_d_472_5734" x="12.95" y="8.8" width="22.0728" height="32.4" filterUnits="userSpaceOnUse" color-interpolation-filters="sRGB">
<feFlood flood-opacity="0" result="BackgroundImageFix"/>
<feColorMatrix in="SourceAlpha" type="matrix" values="0 0 0 0 0 0 0 0 0 0 0 0 0 0 0 0 0 0 127 0" result="hardAlpha"/>
<feOffset dy="1"/>
<feGaussianBlur stdDeviation="1"/>
<feComposite in2="hardAlpha" operator="out"/>
<feColorMatrix type="matrix" values="0 0 0 0 1 0 0 0 0 0.360784 0 0 0 0 0.34902 0 0 0 1 0"/>
<feBlend mode="normal" in2="BackgroundImageFix" result="effect1_dropShadow_472_5734"/>
<feBlend mode="normal" in="SourceGraphic" in2="effect1_dropShadow_472_5734" result="shape"/>
</filter>
<radialGradient id="paint0_radial_472_5734" cx="0" cy="0" r="1" gradientUnits="userSpaceOnUse" gradientTransform="translate(24 24) rotate(90) scale(24)">
<stop offset="0.796875" stop-color="#FF5C59" stop-opacity="0"/>
<stop offset="1" stop-color="#FF5C59"/>
</radialGradient>
</defs>
</svg>
