<svg width="48" height="48" viewBox="0 0 48 48" fill="none" xmlns="http://www.w3.org/2000/svg">
<circle cx="24" cy="24" r="24" fill="#121438"/>
<circle cx="24" cy="24" r="23.5" stroke="white" stroke-opacity="0.1"/>
<path fill-rule="evenodd" clip-rule="evenodd" d="M17.8633 7.06534L35.6882 26.5242L14.4697 8.7139C14.1742 8.89816 13.8843 9.09072 13.6005 9.2913L35.045 27.2912L10.7404 11.8025C10.5117 12.0505 10.2898 12.305 10.0751 12.5655L34.5072 28.1354L7.96962 15.7569C7.8167 16.0528 7.67172 16.3536 7.535 16.6589L34.0842 29.043L6.35337 20.2966C6.28452 20.6245 6.22457 20.9556 6.1738 21.2897L33.7832 29.9978L6 25.0974C6.02044 25.4442 6.0507 25.7886 6.09049 26.13L33.6094 30.9838L6.921 29.8182C7.0379 30.1626 7.16494 30.5024 7.30174 30.837L33.5658 31.9842L9.06668 34.1282C9.28556 34.4508 9.51462 34.766 9.7534 35.073L33.653 32.9814L12.28 37.7212C12.6061 38.0002 12.9422 38.2678 13.2878 38.523L33.8696 33.959L16.3367 40.3424C16.7798 40.5506 17.2329 40.7412 17.6949 40.9134L34.212 34.8998L20.9764 41.792C21.5569 41.8896 22.1466 41.9592 22.7445 42L34.674 35.7878L25.8868 41.9426C26.6734 41.8602 27.4446 41.727 28.1976 41.5464L35.2482 36.6078L30.756 40.7254C32.0846 40.186 33.3344 39.4926 34.483 38.6672L35.9244 37.346L35.4224 37.9444C39.4388 34.6392 42 29.629 42 24.0202C42 22.2586 41.7474 20.5561 41.2764 18.9469L41.0484 24.1648L40.3822 16.5456C40.0336 15.7811 39.633 15.0454 39.185 14.3428L40.0516 24.252L37.313 11.8953C36.8976 11.4385 36.4588 11.0031 35.9988 10.591L39.0744 24.4688L33.2968 8.58986C32.8648 8.32834 32.4206 8.08448 31.9658 7.85924L38.1338 24.8112L28.6632 6.61234C28.242 6.49934 27.8148 6.40122 27.382 6.3186L37.246 25.2734L23.755 6C23.3569 6.00496 22.9619 6.02284 22.5704 6.05324L36.4262 25.8478L18.9081 6.72384C18.5551 6.8273 18.2068 6.94126 17.8633 7.06534Z" fill="url(#paint0_linear_431_5783)"/>
<defs>
<linearGradient id="paint0_linear_431_5783" x1="39.3314" y1="34.3766" x2="9.04602" y2="13.2443" gradientUnits="userSpaceOnUse">
<stop stop-color="#7000FF"/>
<stop offset="0.53125" stop-color="#00FFD1"/>
<stop offset="1" stop-color="#FFBF1C"/>
</linearGradient>
</defs>
</svg>
