<svg width="40" height="40" viewBox="0 0 40 40" fill="none" xmlns="http://www.w3.org/2000/svg">
<path d="M19.9998 40C31.0455 40 39.9998 31.0457 39.9998 20C39.9998 8.95431 31.0455 0 19.9998 0C8.95406 0 -0.000244141 8.95431 -0.000244141 20C-0.000244141 31.0457 8.95406 40 19.9998 40Z" fill="#3D2A76"/>
<path d="M28.8287 24.9615H27.4111L27.3187 24.7766C27.3187 24.7766 26.5483 23.0971 24.6376 22.6656C26.4712 22.1263 27.7193 20.9553 28.3356 19.5994H29.7532C30.0325 18.99 30.1796 18.3283 30.1846 17.6579C30.1898 17.0054 30.1226 16.3542 29.9843 15.7165C29.3834 13.02 27.3957 11.1248 23.482 10.755H23.4512L23.0352 10.7242H10.878V19.6148H9.46045V24.9615H10.878V29.3991H16.2401V25.5932V24.9615H20.2925C22.049 24.9615 22.6037 25.9938 23.7286 28.5516C23.8518 28.8084 23.9751 29.0858 24.0984 29.3837H30.8626C30.1538 27.6425 29.1369 25.5778 28.8287 24.9615ZM16.2401 15.7165H21.6638C22.7732 15.7165 23.8056 16.5485 23.8056 17.6579C23.8056 18.7673 22.7732 19.5994 21.6638 19.5994H16.2401V15.7165Z" fill="#EA328A"/>
<path d="M23.9443 9.72263V8.53619H25.2386V3.29736H20.647V8.52078H19.3527V9.59937H22.0029C22.6517 9.60778 23.2997 9.64892 23.9443 9.72263Z" fill="#EA328A"/>
<path d="M17.4574 9.6148V8.53622H18.7517V6.33282H14.16V8.52081H12.8657V9.6148H16.2401H17.4574Z" fill="#EA328A"/>
<path d="M17.3187 18.5208H19.0907V16.795H17.3187V18.5208Z" fill="#EA328A"/>
<path d="M23.1123 29.8305L22.9428 29.4607C21.5868 26.3945 21.3249 26.0555 20.2771 26.0555H17.3187V30.4931H14.915V31.5254H19.5067V27.6271H21.2941V34.9923H25.8858V30.4777H23.3896L23.1123 29.8305Z" fill="#EA328A"/>
</svg>
