<svg width="16" height="16" viewBox="0 0 16 16" fill="none" xmlns="http://www.w3.org/2000/svg">
    <path d="M8.00002 16C3.58885 16 0 12.4111 0 8.00002C0 3.58884 3.58885 0 8.00002 0C12.4111 0 16 3.58885 16 8.00002C16 12.4111 12.4111 16 8.00002 16Z" fill="#03A66D"/>
    <path d="M12.6387 4.91844C12.4141 4.69628 11.9009 4.57616 11.6797 4.7998L6.87994 9.60007L4.32035 7.04004C4.09916 6.8125 3.63872 7.00781 3.41413 7.2275C3.18754 7.44824 3.18267 7.80957 3.40338 8.03515L6.45319 11.1475C6.45417 11.1489 6.45613 11.1489 6.45753 11.1504C6.45903 11.1523 6.45903 11.1533 6.461 11.1553C6.49614 11.1904 6.54253 11.2129 6.58403 11.2368C6.60647 11.2495 6.62408 11.2685 6.64655 11.2769C6.7149 11.3057 6.78911 11.3184 6.86235 11.3184C6.93462 11.3184 7.00788 11.3037 7.07723 11.2769C7.0992 11.2671 7.11529 11.2481 7.13773 11.2383C7.17923 11.2144 7.22564 11.1934 7.26079 11.1567C7.26274 11.1553 7.26274 11.1533 7.26373 11.1524C7.26567 11.1504 7.26718 11.1504 7.26862 11.1489L12.6436 5.72312C12.8658 5.50095 12.8624 5.1406 12.6387 4.91844Z" fill="white"/>
</svg>
