<svg width="36" height="36" viewBox="0 0 36 36" fill="none" xmlns="http://www.w3.org/2000/svg">
    <path d="M0 18C0 22.7739 1.89642 27.3523 5.27208 30.7279C8.64773 34.1036 13.2261 36 18 36C22.7739 36 27.3523 34.1036 30.7279 30.7279C34.1036 27.3523 36 22.7739 36 18C36 13.2261 34.1036 8.64773 30.7279 5.27208C27.3523 1.89642 22.7739 0 18 0C13.2261 0 8.64773 1.89642 5.27208 5.27208C1.89642 8.64773 0 13.2261 0 18H0Z" fill="#E84142"/>
    <path d="M19.077 5.34291C18.4533 4.26591 17.4612 4.26591 16.8375 5.34291L5.51313 25.2848C4.88973 26.3759 5.39973 27.2408 6.64713 27.2408H12.3306C12.8946 27.2062 13.4425 27.0393 13.93 26.7537C14.4176 26.468 14.831 26.0716 15.1368 25.5965L21.9825 13.7336C22.2275 13.2276 22.3547 12.6728 22.3547 12.1106C22.3547 11.5485 22.2275 10.9936 21.9825 10.4876L19.9416 6.90201L19.077 5.34291ZM26.6031 18.4676C25.9791 17.3906 24.9732 17.3906 24.3495 18.4676L20.3952 25.2848C19.7856 26.3618 20.2959 27.2408 21.5292 27.2408H29.3526C30.5997 27.2408 31.11 26.3618 30.4863 25.2848L26.6031 18.4673V18.4676Z" fill="white"/>
</svg>
