<svg width="20" height="20" viewBox="0 0 20 20" fill="none" xmlns="http://www.w3.org/2000/svg">
    <g clip-path="url(#clip0_1783_19382)">
        <path d="M0 10C0 12.6522 1.05357 15.1957 2.92893 17.0711C4.8043 18.9464 7.34784 20 10 20C12.6522 20 15.1957 18.9464 17.0711 17.0711C18.9464 15.1957 20 12.6522 20 10C20 7.34784 18.9464 4.8043 17.0711 2.92893C15.1957 1.05357 12.6522 0 10 0C7.34784 0 4.8043 1.05357 2.92893 2.92893C1.05357 4.8043 0 7.34784 0 10H0Z"
              fill="#EBBA4E"/>
        <path d="M7.41031 8.45464L10 5.86392L12.5918 8.45567L14.099 6.94846L10 2.84949L5.9031 6.94743L7.41031 8.45464ZM3.33093 9.51856L4.83815 8.01134L6.34536 9.51856L4.83815 11.0258L3.33093 9.51856ZM7.41031 10.5825L10 13.1732L12.5918 10.5814L14.1 12.0876L14.099 12.0887L10 16.1866L5.9031 12.0897L5.90104 12.0876L7.41031 10.5825ZM13.6546 9.51959L15.1619 8.01237L16.6691 9.51959L15.1619 11.0268L13.6546 9.51959Z"
              fill="white"/>
        <path d="M11.5289 9.51753L9.99999 7.98866L8.87009 9.11856L8.7402 9.24846L8.47215 9.5165L8.47009 9.51856L8.47215 9.52062L9.99999 11.0485L11.5289 9.51959L11.5299 9.51856L11.5289 9.51753Z"
              fill="white"/>
    </g>
    <defs>
        <clipPath id="clip0_1783_19382">
            <rect width="20" height="20" fill="white"/>
        </clipPath>
    </defs>
</svg>
