<svg width="12" height="12" viewBox="0 0 12 12" fill="none" xmlns="http://www.w3.org/2000/svg">
    <path d="M9.88672 5.81212C10.2402 5.45864 10.8133 5.45864 11.1668 5.81212C11.5203 6.1656 11.5203 6.7387 11.1668 7.09217L6.64111 11.6178C6.28763 11.9713 5.71453 11.9713 5.36105 11.6178L0.835385 7.09217C0.481909 6.7387 0.481909 6.1656 0.835385 5.81212C1.18886 5.45864 1.76196 5.45864 2.11544 5.81212C3.21532 6.912 5.09595 6.13302 5.09595 4.57756L5.09595 1.02134C5.09595 0.521453 5.50119 0.116211 6.00108 0.116211C6.50097 0.116211 6.90622 0.521453 6.90622 1.02134L6.90621 4.57755C6.90621 6.13302 8.78684 6.912 9.88672 5.81212Z"
          fill="#1E69FF"/>
</svg>
