<svg width="14" height="14" viewBox="0 0 14 14" fill="none" xmlns="http://www.w3.org/2000/svg">
    <path d="M12.0002 13.6667H2.00017C1.55814 13.6667 1.13422 13.4911 0.821654 13.1785C0.509092 12.866 0.333496 12.4421 0.333496 12V3.11108C0.333496 2.89221 0.376606 2.67549 0.460364 2.47327C0.544123 2.27106 0.666889 2.08733 0.821654 1.93257C1.13422 1.62 1.55814 1.44441 2.00017 1.44441H3.66685V0.888848C3.66687 0.741519 3.72541 0.600233 3.8296 0.496063C3.93378 0.391894 4.07508 0.333374 4.22241 0.333374C4.36974 0.333374 4.51103 0.391894 4.61522 0.496063C4.7194 0.600233 4.77795 0.741519 4.77797 0.888848V1.44441H9.22244V0.888848C9.22246 0.741519 9.281 0.600233 9.38519 0.496063C9.48937 0.391894 9.63067 0.333374 9.778 0.333374C9.92533 0.333374 10.0666 0.391894 10.1708 0.496063C10.275 0.600233 10.3335 0.741519 10.3336 0.888848V1.44441H12.0002C12.4423 1.44441 12.8662 1.62 13.1788 1.93257C13.4913 2.24513 13.6669 2.66905 13.6669 3.11108V12C13.6669 12.4421 13.4913 12.866 13.1788 13.1785C12.8662 13.4911 12.4423 13.6667 12.0002 13.6667ZM1.44461 5.3611V12C1.44461 12.1474 1.50315 12.2887 1.60733 12.3929C1.71152 12.4971 1.85283 12.5556 2.00017 12.5556H12.0002C12.1476 12.5556 12.2889 12.4971 12.3931 12.3929C12.4973 12.2887 12.5558 12.1474 12.5558 12V5.3611H1.44461ZM1.44461 4.24998H12.5558V3.11108C12.5558 2.96374 12.4973 2.82243 12.3931 2.71824C12.2889 2.61406 12.1476 2.55553 12.0002 2.55553H10.3336V3.11108C10.3335 3.25841 10.275 3.3997 10.1708 3.50387C10.0666 3.60804 9.92533 3.66656 9.778 3.66656C9.63067 3.66656 9.48937 3.60804 9.38519 3.50387C9.281 3.3997 9.22246 3.25841 9.22244 3.11108V2.55553H4.77797V3.11108C4.77795 3.25841 4.7194 3.3997 4.61522 3.50387C4.51103 3.60804 4.36974 3.66656 4.22241 3.66656C4.07508 3.66656 3.93378 3.60804 3.8296 3.50387C3.72541 3.3997 3.66687 3.25841 3.66685 3.11108V2.55553H2.00017C1.85283 2.55553 1.71152 2.61406 1.60733 2.71824C1.50315 2.82243 1.44461 2.96374 1.44461 3.11108V4.24998ZM6.27798 10.8556C6.13762 10.8551 6.00265 10.8015 5.9002 10.7056L4.39463 9.2889C4.29027 9.18649 4.23027 9.04721 4.22752 8.90102C4.22478 8.75483 4.27951 8.61339 4.37995 8.50713C4.48039 8.40087 4.61851 8.33827 4.76463 8.33278C4.91074 8.32729 5.05318 8.37936 5.1613 8.47779L6.27242 9.52779L8.83355 7C8.94046 6.90968 9.07753 6.86305 9.21734 6.86942C9.35715 6.87579 9.48941 6.9347 9.58767 7.03436C9.68593 7.13403 9.74295 7.2671 9.74734 7.40699C9.75172 7.54688 9.70315 7.68327 9.61133 7.78889L6.67242 10.6889C6.62097 10.7414 6.55961 10.7832 6.4919 10.8118C6.42419 10.8404 6.35148 10.8553 6.27798 10.8556Z" fill="white"/>
</svg>
