<svg width="10" height="10" viewBox="0 0 10 10" fill="none" xmlns="http://www.w3.org/2000/svg">
    <path d="M9.875 8.75C9.875 8.84946 9.83549 8.94484 9.76517 9.01517C9.69484 9.08549 9.59946 9.125 9.5 9.125H0.5C0.400544 9.125 0.305161 9.08549 0.234835 9.01517C0.164509 8.94484 0.125 8.84946 0.125 8.75V1.25C0.125 1.15054 0.164509 1.05516 0.234835 0.984835C0.305161 0.914509 0.400544 0.875 0.5 0.875C0.599456 0.875 0.694839 0.914509 0.765165 0.984835C0.835491 1.05516 0.875 1.15054 0.875 1.25V6.34531L3.23281 3.98281C3.30391 3.91239 3.39993 3.87289 3.5 3.87289C3.60007 3.87289 3.69609 3.91239 3.76719 3.98281L5 5.22031L7.84531 2.375H6.875C6.77554 2.375 6.68016 2.33549 6.60983 2.26516C6.53951 2.19484 6.5 2.09946 6.5 2C6.5 1.90054 6.53951 1.80516 6.60983 1.73484C6.68016 1.66451 6.77554 1.625 6.875 1.625H8.75C8.84946 1.625 8.94484 1.66451 9.01517 1.73484C9.08549 1.80516 9.125 1.90054 9.125 2V3.875C9.125 3.97446 9.08549 4.06984 9.01517 4.14016C8.94484 4.21049 8.84946 4.25 8.75 4.25C8.65054 4.25 8.55516 4.21049 8.48483 4.14016C8.41451 4.06984 8.375 3.97446 8.375 3.875V2.90469L5.26719 6.01719C5.19609 6.08761 5.10007 6.12711 5 6.12711C4.89993 6.12711 4.80391 6.08761 4.73281 6.01719L3.5 4.77969L0.875 7.40469V8.375H9.5C9.59946 8.375 9.69484 8.41451 9.76517 8.48483C9.83549 8.55516 9.875 8.65054 9.875 8.75Z" fill="#858E9B"/>
</svg>
