<svg width="12" height="12" viewBox="0 0 12 12" fill="none" xmlns="http://www.w3.org/2000/svg">
    <path fill-rule="evenodd" clip-rule="evenodd" d="M10.9156 2.02699C11.176 1.76664 11.176 1.34453 10.9156 1.08418C10.6553 0.823829 10.2332 0.823829 9.97282 1.08418L5.99989 5.05711L2.02696 1.08418C1.76661 0.823829 1.3445 0.823829 1.08415 1.08418C0.823801 1.34453 0.823801 1.76664 1.08415 2.02699L5.05708 5.99992L1.08393 9.97307C0.823584 10.2334 0.823584 10.6555 1.08393 10.9159C1.34428 11.1762 1.76639 11.1762 2.02674 10.9159L5.99989 6.94273L9.97304 10.9159C10.2334 11.1762 10.6555 11.1762 10.9158 10.9159C11.1762 10.6555 11.1762 10.2334 10.9158 9.97307L6.9427 5.99992L10.9156 2.02699Z" fill="#707A8A"/>
</svg>
