<svg width="24" height="24" viewBox="0 0 24 24" fill="none" xmlns="http://www.w3.org/2000/svg">
    <g clip-path="url(#clip0_1783_19427)">
        <path d="M20.6602 7.53751H20.5641C20.0883 7.53751 19.6594 7.68048 19.2774 7.91954C18.9422 6.91642 18.0399 6.20157 16.943 6.20157C16.4672 6.20157 15.9891 6.34454 15.5625 6.58361C15.2274 5.58048 14.325 4.86564 13.2282 4.86564C12.7993 4.86564 12.3703 4.96173 12.0375 5.15157V2.5758C12.0375 1.14611 10.9899 1.51581e-05 9.56019 1.51581e-05C8.87816 -0.00232859 8.22191 0.267203 7.7391 0.752359C7.25629 1.23751 6.98676 1.89376 6.9891 2.57814V12.5016L5.41644 10.9266C4.41566 9.92345 2.65551 10.0688 1.79535 10.9266C0.939883 11.7844 0.368008 13.5024 1.60551 14.7422L8.7516 21.9C8.89925 22.0406 9.05863 22.1695 9.22738 22.282C10.561 23.332 12.0375 24 15.1828 24C22.4227 24 23.0907 20.0883 23.0907 15.2203V10.1156C23.0883 8.6836 22.0407 7.53751 20.6602 7.53751ZM21.7547 15.2203C21.7547 19.3242 21.7547 22.6148 15.2274 22.6148C12.4664 22.6148 10.7977 21.9938 9.56019 20.7539L2.74926 13.9781C2.13051 13.357 2.32035 12.5953 2.79613 12.1172C3.27191 11.6391 4.1766 11.5922 4.65473 12.0703C4.65473 12.0703 5.84535 13.2633 6.89301 14.2664L8.36957 15.7453V2.81486C8.36957 2.14689 8.89457 1.62189 9.60707 1.62189C10.2727 1.62189 10.7508 2.14689 10.7508 2.81486V11.1656C10.7508 11.5477 11.0368 11.8336 11.4188 11.8336C11.8008 11.8336 12.0844 11.5477 12.0844 11.1656V7.6336C12.0844 6.96564 12.5602 6.44064 13.2282 6.44064C13.2282 6.44064 14.4188 6.44064 14.4188 7.6336V12.2133C14.4188 12.5953 14.7047 12.8813 15.0844 12.8813C15.4664 12.8813 15.75 12.5953 15.75 12.2133V8.96954C15.75 8.30157 16.2258 7.77657 16.8938 7.77657C16.8938 7.77657 18.0844 7.87267 18.0844 8.96954V13.0266C18.0844 13.4086 18.3703 13.6945 18.75 13.6945C19.1321 13.6945 19.418 13.4086 19.418 13.0266V10.2094C19.4157 9.89298 19.5399 9.58829 19.7649 9.36329C19.9899 9.13829 20.2922 9.01407 20.611 9.01642C20.9274 9.01876 21.8016 8.96954 21.8016 10.2094L21.7547 15.2203Z"
              fill="#EAECEF"/>
    </g>
    <defs>
        <clipPath id="clip0_1783_19427">
            <rect width="24" height="24" fill="white"/>
        </clipPath>
    </defs>
</svg>
