<svg width="36" height="36" viewBox="0 0 36 36" fill="none" xmlns="http://www.w3.org/2000/svg">
    <path d="M18 36C12.975 36 8.71875 34.2563 5.23125 30.7688C1.74375 27.2813 0 23.025 0 18C0 12.975 1.74375 8.71875 5.23125 5.23125C8.71875 1.74375 12.975 0 18 0C23.025 0 27.2812 1.74375 30.7688 5.23125C34.2562 8.71875 36 12.975 36 18C36 23.025 34.2562 27.2813 30.7688 30.7688C27.2812 34.2563 23.025 36 18 36ZM18 25.875C18.6375 25.875 19.1723 25.6598 19.6042 25.2293C20.0363 24.7988 20.2515 24.264 20.25 23.625V14.625H23.0625C23.55 14.625 23.9527 14.4653 24.2708 14.1458C24.5887 13.8263 24.7485 13.4235 24.75 12.9375C24.75 12.45 24.5903 12.0472 24.2708 11.7292C23.9513 11.4112 23.5485 11.2515 23.0625 11.25H12.9375C12.45 11.25 12.0472 11.4097 11.7292 11.7292C11.4112 12.0487 11.2515 12.4515 11.25 12.9375C11.25 13.425 11.4097 13.8278 11.7292 14.1458C12.0487 14.4638 12.4515 14.6235 12.9375 14.625H15.75V23.625C15.75 24.2625 15.966 24.7973 16.398 25.2293C16.83 25.6613 17.364 25.8765 18 25.875Z"
          fill="#707A8A"/>
</svg>
