<svg width="30" height="30" viewBox="0 0 30 30" fill="none" xmlns="http://www.w3.org/2000/svg">
    <rect x="0.5" y="0.5" width="29" height="29" rx="7.5" stroke="#2C3138"/>
    <g opacity="0.5">
        <path d="M18.1302 14.8483C18.415 14.5636 18.8767 14.5636 19.1614 14.8483C19.4462 15.1331 19.4462 15.5948 19.1614 15.8795L15.5156 19.5254C15.2308 19.8101 14.7692 19.8101 14.4844 19.5254L10.8386 15.8795C10.5538 15.5948 10.5538 15.1331 10.8386 14.8483C11.1233 14.5636 11.585 14.5636 11.8698 14.8483L14.2708 17.2494L14.2708 10.9889C14.2708 10.5862 14.5973 10.2598 15 10.2598C15.4027 10.2598 15.7292 10.5862 15.7292 10.9889L15.7292 17.2494L18.1302 14.8483Z" fill="#EAECEF"/>
    </g>
</svg>
