<svg width="20" height="20" viewBox="0 0 20 20" fill="none" xmlns="http://www.w3.org/2000/svg">
<g id="ethereum-eth-logo" clip-path="url(#clip0_595_88149)">
<path id="Vector" d="M0 10C0 7.34783 1.05357 4.8043 2.92893 2.92893C4.8043 1.05357 7.34784 0 10 0C12.6522 0 15.1957 1.05357 17.0711 2.92893C18.9464 4.8043 20 7.34783 20 10C20 12.6522 18.9464 15.1957 17.0711 17.0711C15.1957 18.9464 12.6522 20 10 20C7.34784 20 4.8043 18.9464 2.92893 17.0711C1.05357 15.1957 0 12.6522 0 10H0Z" fill="#607AE3"/>
<path id="Vector_2" d="M9.99999 17.1866L9.90332 16.86V7.35664L9.99999 7.25998L14.41 9.86664L9.99999 17.1866Z" fill="#BCC5EE"/>
<path id="Vector_3" d="M10 17.1866L5.58667 9.86664L10 7.25998V11.8733V17.1866Z" fill="#F7F7F7"/>
<path id="Vector_4" d="M10 6.42336L9.94336 6.3567V2.97337L10 2.81337L14.4134 9.03003L10 6.42336Z" fill="#BCC5EE"/>
<path id="Vector_5" d="M10 2.81337V6.42336L5.58667 9.03003L10 2.81337Z" fill="#F7F7F7"/>
<path id="Vector_6" d="M10 7.25996L14.41 9.86662L10 11.8733V7.25996Z" fill="#7D93E7"/>
<path id="Vector_7" d="M5.58667 9.86662L10 7.25996V11.8733L5.58667 9.86662Z" fill="#BCC5EE"/>
</g>
<defs>
<clipPath id="clip0_595_88149">
<rect width="20" height="20" fill="white" transform="matrix(1 0 0 -1 0 20)"/>
</clipPath>
</defs>
</svg>
