<svg width="20" height="20" viewBox="0 0 20 20" fill="none" xmlns="http://www.w3.org/2000/svg">
    <g clip-path="url(#clip0_1783_19400)">
        <path d="M0 10C0 12.6522 1.05357 15.1957 2.92893 17.0711C4.8043 18.9464 7.34784 20 10 20C12.6522 20 15.1957 18.9464 17.0711 17.0711C18.9464 15.1957 20 12.6522 20 10C20 7.34784 18.9464 4.8043 17.0711 2.92893C15.1957 1.05357 12.6522 0 10 0C7.34784 0 4.8043 1.05357 2.92893 2.92893C1.05357 4.8043 0 7.34784 0 10H0Z" fill="#4DACDD"/>
        <path d="M10.8334 8.00084L13.0834 6.68167V9.32L10.8334 8.00084ZM13.0834 13.6542L10.0834 15.4128L7.08337 13.6542V10.5762L10.0834 12.335L13.0834 10.5762V13.6542ZM7.08337 6.68184L9.33338 8.00084L7.08337 9.32V6.68167V6.68184ZM10.4584 8.629L12.7084 9.948L10.4584 11.2672V8.62884V8.629ZM9.70838 11.2672L7.45837 9.948L9.70838 8.629V11.2672ZM12.7084 6.05367L10.0834 7.56117L7.45837 6.05367L10.0834 4.48317L12.7084 6.05367ZM6.33337 5.80234V14.031L10.0834 16.1667L13.8334 14.031V5.80234L10.0834 3.66667L6.33337 5.80234Z" fill="white"/>
    </g>
    <defs>
        <clipPath id="clip0_1783_19400">
            <rect width="20" height="20" fill="white"/>
        </clipPath>
    </defs>
</svg>
