<svg width="9" height="10" viewBox="0 0 9 10" fill="none" xmlns="http://www.w3.org/2000/svg">
    <path d="M0 9.5V1.5C0 1.225 0.0979999 0.989667 0.294 0.794C0.49 0.598333 0.725333 0.500333 1 0.5H4C4.275 0.5 4.5105 0.598 4.7065 0.794C4.9025 0.99 5.00033 1.22533 5 1.5V5H5.5C5.775 5 6.0105 5.098 6.2065 5.294C6.4025 5.49 6.50033 5.72533 6.5 6V8.25C6.5 8.39167 6.548 8.5105 6.644 8.6065C6.74 8.7025 6.85867 8.75033 7 8.75C7.14167 8.75 7.2605 8.70217 7.3565 8.6065C7.4525 8.51083 7.50033 8.392 7.5 8.25V4.65C7.425 4.69167 7.34583 4.71883 7.2625 4.7315C7.17917 4.74417 7.09167 4.75033 7 4.75C6.65 4.75 6.35417 4.62917 6.1125 4.3875C5.87083 4.14583 5.75 3.85 5.75 3.5C5.75 3.23333 5.823 2.99367 5.969 2.781C6.115 2.56833 6.30867 2.41633 6.55 2.325L5.5 1.275L6.025 0.75L7.875 2.55C8 2.675 8.09383 2.82083 8.1565 2.9875C8.21917 3.15417 8.25033 3.325 8.25 3.5V8.25C8.25 8.6 8.12917 8.89583 7.8875 9.1375C7.64583 9.37917 7.35 9.5 7 9.5C6.65 9.5 6.35417 9.37917 6.1125 9.1375C5.87083 8.89583 5.75 8.6 5.75 8.25V5.75H5V9.5H0ZM1 4H4V1.5H1V4ZM7 4C7.14167 4 7.2605 3.95217 7.3565 3.8565C7.4525 3.76083 7.50033 3.642 7.5 3.5C7.5 3.35833 7.452 3.2395 7.356 3.1435C7.26 3.0475 7.14133 2.99967 7 3C6.85833 3 6.7395 3.048 6.6435 3.144C6.5475 3.24 6.49967 3.35867 6.5 3.5C6.5 3.64167 6.548 3.7605 6.644 3.8565C6.74 3.9525 6.85867 4.00033 7 4ZM1 8.5H4V5H1V8.5Z"
          fill="#EAECEF"/>
</svg>
