<svg width="64" height="64" viewBox="0 0 64 64" fill="none" xmlns="http://www.w3.org/2000/svg">
    <circle cx="32" cy="32" r="31.5" transform="rotate(-90 32 32)" fill="#1E2025" stroke="#2F3144"/>
    <path d="M38.6778 31.6754C39.2852 31.0679 40.2702 31.0679 40.8776 31.6754C41.4851 32.2829 41.4851 33.2678 40.8776 33.8753L33.0999 41.6531C32.4924 42.2606 31.5075 42.2606 30.9 41.6531L23.1222 33.8753C22.5147 33.2678 22.5147 32.2829 23.1222 31.6754C23.7297 31.0679 24.7146 31.0679 25.3221 31.6754L30.4444 36.7977L30.4444 23.442C30.4444 22.5829 31.1408 21.8865 31.9999 21.8865C32.859 21.8865 33.5555 22.5829 33.5555 23.442L33.5555 36.7977L38.6778 31.6754Z"
          fill="#EAECEF"/>
</svg>
