<svg width="12" height="14" viewBox="0 0 12 14" fill="none" xmlns="http://www.w3.org/2000/svg">
    <path fill-rule="evenodd" clip-rule="evenodd" d="M7.35568 0.169467C6.46367 -0.111569 5.51004 -0.0409763 4.66358 0.365697C3.81891 0.771506 3.14227 1.48175 2.73794 2.36109C2.51254 2.85129 2.44045 3.44516 2.4143 4.00608C2.39562 4.4067 2.39961 4.84098 2.4034 5.25424C2.40343 5.25838 2.40347 5.26254 2.40351 5.26667H1.66683C0.93045 5.26667 0.333496 5.86362 0.333496 6.6V12.6C0.333496 13.3364 0.93045 13.9333 1.66683 13.9333H10.3335C11.0699 13.9333 11.6668 13.3364 11.6668 12.6V6.6C11.6668 5.86362 11.0699 5.26667 10.3335 5.26667H10.057C10.054 4.69363 10.042 4.12933 9.99404 3.62161C9.93446 2.99026 9.81303 2.35236 9.51576 1.87553C9.00659 1.05881 8.24615 0.450013 7.35568 0.169467ZM8.85696 5.26667C8.85395 4.7072 8.84234 4.18987 8.79935 3.73436C8.74286 3.13576 8.6386 2.7368 8.49744 2.51038C8.12975 1.92059 7.59511 1.50305 6.99509 1.31401C6.39663 1.12546 5.75758 1.1714 5.18324 1.44734C4.6071 1.72414 4.12364 2.21989 3.82821 2.86241C3.70372 3.13314 3.63764 3.5334 3.613 4.06196C3.59595 4.42756 3.59947 4.8071 3.60316 5.20517C3.60335 5.22562 3.60354 5.24612 3.60373 5.26667H8.85696ZM1.66683 6.46667H10.3335C10.4071 6.46667 10.4668 6.52637 10.4668 6.6V12.6C10.4668 12.6736 10.4071 12.7333 10.3335 12.7333H1.66683C1.59319 12.7333 1.5335 12.6736 1.5335 12.6V6.6C1.5335 6.52637 1.59319 6.46667 1.66683 6.46667Z" fill="white"/>
    <path d="M6.32893 9.87803C6.71971 9.74204 7.00016 9.37044 7.00016 8.93333C7.00016 8.38104 6.55245 7.93333 6.00016 7.93333C5.44788 7.93333 5.00016 8.38104 5.00016 8.93333C5.00016 9.37044 5.28061 9.74204 5.6714 9.87803C5.66839 9.89601 5.66683 9.91449 5.66683 9.93333V10.9333C5.66683 11.1174 5.81607 11.2667 6.00016 11.2667C6.18426 11.2667 6.3335 11.1174 6.3335 10.9333V9.93333C6.3335 9.91449 6.33193 9.89601 6.32893 9.87803Z" fill="white"/>
</svg>
