<svg width="20" height="20" viewBox="0 0 20 20" fill="none" xmlns="http://www.w3.org/2000/svg">
    <path d="M17.769 9.89502L14.577 12.78C14.4548 12.8915 14.2954 12.9534 14.13 12.9534C13.9646 12.9534 13.8051 12.8915 13.683 12.78C13.6231 12.7311 13.5749 12.6694 13.5418 12.5996C13.5087 12.5297 13.4915 12.4533 13.4915 12.376C13.4915 12.2987 13.5087 12.2224 13.5418 12.1525C13.5749 12.0826 13.6231 12.021 13.683 11.972L15.79 10.068H9.65997C9.27797 10.068 9.02197 9.83702 9.02197 9.49102C9.02197 9.14402 9.27797 8.91402 9.66097 8.91402H15.79L13.683 7.00902C13.6231 6.96006 13.5749 6.89842 13.5418 6.82855C13.5087 6.75869 13.4915 6.68234 13.4915 6.60502C13.4915 6.52771 13.5087 6.45136 13.5418 6.38149C13.5749 6.31162 13.6231 6.24998 13.683 6.20102C13.7419 6.14345 13.8119 6.09843 13.8887 6.0687C13.9656 6.03896 14.0476 6.02512 14.13 6.02802C14.2123 6.02518 14.2944 6.03905 14.3712 6.06878C14.448 6.09851 14.518 6.1435 14.577 6.20102L17.769 9.14402C17.769 9.14402 17.769 9.20202 17.833 9.20202C17.8812 9.24833 17.9184 9.30492 17.9417 9.36758C17.9651 9.43024 17.974 9.49735 17.9679 9.56394C17.9617 9.63052 17.9407 9.69486 17.9062 9.75218C17.8718 9.8095 17.8249 9.85833 17.769 9.89502Z"
          fill="#707A8A"/>
    <path d="M2 3.84398C2 2.79898 2.845 1.99998 3.95 1.99998H15.005C16.11 1.99998 16.955 2.79898 16.955 3.84398V5.07398C16.955 5.44198 16.695 5.68798 16.305 5.68798C15.915 5.68798 15.655 5.44198 15.655 5.07298V3.84298C15.655 3.47498 15.395 3.22898 15.005 3.22898H3.95C3.56 3.22898 3.3 3.47498 3.3 3.84398V16.136C3.3 16.505 3.56 16.751 3.95 16.751H15.004C15.394 16.751 15.654 16.505 15.654 16.136V14.907C15.654 14.538 15.914 14.292 16.304 14.292C16.694 14.292 16.954 14.538 16.954 14.907V16.137C16.955 17.18 16.11 17.98 15.005 17.98H3.95C2.845 17.98 2 17.181 2 16.136"
          fill="#707A8A"/>
</svg>
