<svg width="130" height="16" viewBox="0 0 130 16" fill="none" xmlns="http://www.w3.org/2000/svg">
    <path fill-rule="evenodd" clip-rule="evenodd"
          d="M61.1374 13.7444C60.86 13.5023 60.8314 13.0812 61.0736 12.8038L65.2673 7.99913L61.0735 3.19447C60.8314 2.91708 60.86 2.49594 61.1374 2.25383C61.4148 2.01171 61.8359 2.0403 62.0781 2.31769L66.6544 7.56074C66.8737 7.81189 66.8737 8.18637 66.6544 8.43752L62.0781 13.6806C61.8359 13.958 61.4148 13.9866 61.1374 13.7444Z"
          fill="#858E9B"/>
    <path fill-rule="evenodd" clip-rule="evenodd"
          d="M69.1374 13.7444C68.86 13.5023 68.8314 13.0812 69.0736 12.8038L73.2673 7.99913L69.0735 3.19447C68.8314 2.91708 68.86 2.49594 69.1374 2.25383C69.4148 2.01171 69.8359 2.0403 70.0781 2.31769L74.6544 7.56074C74.8737 7.81189 74.8737 8.18637 74.6544 8.43752L70.0781 13.6806C69.8359 13.958 69.4148 13.9866 69.1374 13.7444Z"
          fill="#858E9B"/>
    <line y1="7.5" x2="130" y2="7.5" stroke="#858E9B" stroke-dasharray="2 2"/>
</svg>
