<svg width="48" height="48" viewBox="0 0 48 48" fill="none" xmlns="http://www.w3.org/2000/svg">
    <path fill-rule="evenodd" clip-rule="evenodd" d="M12.3 32.5551H35.7C36.4317 32.5551 37 33.0908 37 33.7776C37 34.4653 36.4317 35 35.7 35H12.3C11.5683 35 11 34.4653 11 33.7776C11 33.0898 11.5683 32.5551 12.3 32.5551ZM36.2 25H21.8C21.3497 25 21 24.5618 21 24C21 23.4374 21.3497 23 21.8 23H36.2C36.6503 23 37 23.4382 37 24C37 24.5626 36.6503 25 36.2 25ZM12.3 15.4449H35.7C36.4317 15.4449 37 14.9102 37 14.2224C37 13.5347 36.4317 13 35.7 13H12.3C11.5683 13 11 13.5347 11 14.2224C11 14.9092 11.5683 15.4449 12.3 15.4449Z" fill="white"/>
    <path d="M35.7 33.0551H12.3V32.0551H35.7V33.0551ZM36.5 33.7776C36.5 33.3951 36.1846 33.0551 35.7 33.0551V32.0551C36.6788 32.0551 37.5 32.7864 37.5 33.7776H36.5ZM35.7 34.5C36.1849 34.5 36.5 34.1607 36.5 33.7776H37.5C37.5 34.7699 36.6785 35.5 35.7 35.5V34.5ZM12.3 34.5H35.7V35.5H12.3V34.5ZM11.5 33.7776C11.5 34.1607 11.8151 34.5 12.3 34.5V35.5C11.3215 35.5 10.5 34.7699 10.5 33.7776H11.5ZM12.3 33.0551C11.8151 33.0551 11.5 33.3944 11.5 33.7776H10.5C10.5 32.7852 11.3215 32.0551 12.3 32.0551V33.0551ZM21.8 24.5H36.2V25.5H21.8V24.5ZM21.5 24C21.5 24.1797 21.5561 24.3165 21.6217 24.3985C21.685 24.4776 21.7486 24.5 21.8 24.5V25.5C20.9749 25.5 20.5 24.7277 20.5 24H21.5ZM21.8 23.5C21.7482 23.5 21.6847 23.5224 21.6216 23.6013C21.5562 23.6831 21.5 23.8198 21.5 24H20.5C20.5 23.2712 20.9751 22.5 21.8 22.5V23.5ZM36.2 23.5H21.8V22.5H36.2V23.5ZM36.5 24C36.5 23.8203 36.4439 23.6835 36.3783 23.6015C36.315 23.5224 36.2514 23.5 36.2 23.5V22.5C37.0251 22.5 37.5 23.2723 37.5 24H36.5ZM36.2 24.5C36.2518 24.5 36.3153 24.4776 36.3784 24.3987C36.4438 24.3169 36.5 24.1802 36.5 24H37.5C37.5 24.7288 37.0249 25.5 36.2 25.5V24.5ZM35.7 15.9449H12.3V14.9449H35.7V15.9449ZM37.5 14.2224C37.5 15.2148 36.6785 15.9449 35.7 15.9449V14.9449C36.1849 14.9449 36.5 14.6056 36.5 14.2224H37.5ZM35.7 12.5C36.6785 12.5 37.5 13.2301 37.5 14.2224H36.5C36.5 13.8393 36.1849 13.5 35.7 13.5V12.5ZM12.3 12.5H35.7V13.5H12.3V12.5ZM10.5 14.2224C10.5 13.2301 11.3215 12.5 12.3 12.5V13.5C11.8151 13.5 11.5 13.8393 11.5 14.2224H10.5ZM12.3 15.9449C11.3212 15.9449 10.5 15.2136 10.5 14.2224H11.5C11.5 14.6049 11.8154 14.9449 12.3 14.9449V15.9449Z" fill="white"/>
</svg>
