<svg width="64" height="64" viewBox="0 0 64 64" fill="none" xmlns="http://www.w3.org/2000/svg">
    <rect x="0.5" y="0.5" width="63" height="63" rx="7.5" stroke="#2C3138"/>
    <g opacity="0.5">
        <path d="M38.678 31.6762C39.2855 31.0687 40.2704 31.0687 40.8779 31.6762C41.4854 32.2836 41.4854 33.2686 40.8779 33.876L33.1001 41.6538C32.4926 42.2613 31.5077 42.2613 30.9002 41.6538L23.1224 33.876C22.515 33.2686 22.515 32.2836 23.1224 31.6762C23.7299 31.0687 24.7148 31.0687 25.3223 31.6762L30.4446 36.7984L30.4446 23.4428C30.4446 22.5837 31.1411 21.8872 32.0002 21.8872C32.8593 21.8872 33.5557 22.5837 33.5557 23.4428L33.5557 36.7984L38.678 31.6762Z" fill="#EAECEF"/>
    </g>
</svg>
