<svg width="14" height="14" viewBox="0 0 14 14" fill="none" xmlns="http://www.w3.org/2000/svg">
    <path d="M13.8528 13.1434L10.7651 10.0555C11.7031 8.95239 12.2128 7.56934 12.2128 6.10685C12.2128 4.47515 11.5777 2.94166 10.4246 1.78839C9.27141 0.635139 7.73801 0 6.10642 0C4.47483 0 2.94145 0.635139 1.78826 1.78839C0.635094 2.94164 0 4.47515 0 6.10685C0 7.73856 0.635094 9.27205 1.78826 10.4253C2.94143 11.5786 4.47483 12.2137 6.10642 12.2137C7.5688 12.2137 8.95385 11.7019 10.0548 10.7659L13.1425 13.8537C13.2406 13.9519 13.3681 14 13.4976 14C13.6271 14 13.7546 13.952 13.8527 13.8537C14.0491 13.6574 14.0491 13.3398 13.8527 13.1434H13.8528ZM2.49858 9.71705C0.507679 7.72601 0.507679 4.48768 2.49858 2.49874C3.46164 1.53561 4.74435 1.00285 6.10852 1.00285C7.47269 1.00285 8.75331 1.53351 9.71846 2.49874C11.7094 4.48979 11.7094 7.72811 9.71846 9.71705C7.72547 11.706 4.4874 11.706 2.49858 9.71705Z"
          fill="#707A8A"/>
</svg>
