<svg xmlns="http://www.w3.org/2000/svg" width="20" height="20" viewBox="0 0 20 20" fill="none">
    <path fill-rule="evenodd" clip-rule="evenodd" d="M5.87343 3.66631H13.7413C14.0651 3.66631 14.3562 3.86341 14.4764 4.16399L16.6932 9.70598C16.7687 9.89474 16.7687 10.1053 16.6932 10.2941L14.4764 15.836C14.3562 16.1366 14.0651 16.3337 13.7413 16.3337H5.84881C5.53995 16.3337 5.2622 16.1457 5.14749 15.8589L2.92155 10.2941C2.84605 10.1053 2.84605 9.89474 2.92155 9.70598L5.13834 4.16399C5.25858 3.86341 5.5497 3.66631 5.87343 3.66631ZM3.66817 3.57592C4.02887 2.67418 4.90223 2.08289 5.87343 2.08289H13.7413C14.7125 2.08289 15.5859 2.67418 15.9466 3.57592L18.1634 9.11791C18.3899 9.68417 18.3899 10.3159 18.1634 10.8821L15.9466 16.4241C15.5859 17.3259 14.7125 17.9172 13.7413 17.9172H5.84881C4.89248 17.9172 4.03249 17.3349 3.67731 16.447L1.45137 10.8821C1.22487 10.3159 1.22487 9.68417 1.45137 9.11791L3.66817 3.57592ZM11.3905 10C11.3905 10.8745 10.6816 11.5834 9.8071 11.5834C8.9326 11.5834 8.22368 10.8745 8.22368 10C8.22368 9.12552 8.9326 8.41659 9.8071 8.41659C10.6816 8.41659 11.3905 9.12552 11.3905 10ZM12.974 10C12.974 11.749 11.5561 13.1669 9.8071 13.1669C8.0581 13.1669 6.64025 11.749 6.64025 10C6.64025 8.25102 8.0581 6.83317 9.8071 6.83317C11.5561 6.83317 12.974 8.25102 12.974 10Z" fill="#858E9B" fill-opacity="0.5"/>
</svg>