<svg width="152" height="152" viewBox="0 0 152 152" fill="none" xmlns="http://www.w3.org/2000/svg">
    <g clip-path="url(#clip0_1016_20263)">
        <path d="M76 150C116.869 150 150 116.869 150 76C150 35.1309 116.869 2 76 2C35.1309 2 2 35.1309 2 76C2 116.869 35.1309 150 76 150Z"
              stroke="url(#paint0_radial_1016_20263)" stroke-width="4"/>
        <mask id="mask0_1016_20263" style="mask-type:luminance" maskUnits="userSpaceOnUse" x="46" y="45" width="70"
              height="70">
            <path d="M116 45H46V115H116V45Z" fill="white"/>
        </mask>
        <g mask="url(#mask0_1016_20263)">
            <path fill-rule="evenodd" clip-rule="evenodd"
                  d="M106.396 60.4376C107.535 61.5767 107.535 63.4234 106.396 64.5624L74.3124 96.6458C73.1734 97.7847 71.3267 97.7847 70.1876 96.6458L55.6043 82.0625C54.4652 80.9234 54.4652 79.0767 55.6043 77.9377C56.7433 76.7986 58.59 76.7986 59.7291 77.9377L72.25 90.4586L102.271 60.4376C103.41 59.2986 105.257 59.2986 106.396 60.4376Z"
                  fill="#4C1CAC"/>
        </g>
    </g>
    <path d="M76.0001 108C58.3554 108 44 93.6446 44 76.0001C44 58.3554 58.3554 44 76.0001 44C93.6446 44 108 58.3554 108 76.0001C108 93.6446 93.6446 108 76.0001 108Z"
          fill="#1F69FF"/>
    <path d="M94.5547 63.6738C93.6563 62.7852 91.6035 62.3047 90.7187 63.1993L71.5195 82.4004L61.2812 72.1603C60.3964 71.2501 58.5546 72.0313 57.6563 72.9101C56.7499 73.793 56.7304 75.2384 57.6133 76.1407L69.8125 88.5899C69.8164 88.5958 69.8243 88.5958 69.8299 88.6016C69.8359 88.6094 69.8359 88.6134 69.8438 88.6212C69.9843 88.7618 70.1699 88.8517 70.3359 88.9474C70.4256 88.9982 70.4961 89.0742 70.586 89.1076C70.8593 89.2227 71.1562 89.2735 71.4492 89.2735C71.7382 89.2735 72.0313 89.2149 72.3087 89.1076C72.3965 89.0686 72.4609 88.9923 72.5507 88.9531C72.7167 88.8575 72.9023 88.7735 73.0429 88.627C73.0507 88.6212 73.0507 88.6134 73.0547 88.6095C73.0624 88.6017 73.0685 88.6017 73.0742 88.5958L94.5743 66.8926C95.4629 66.0039 95.4492 64.5625 94.5547 63.6738Z"
          fill="#1E2025"/>
    <defs>
        <radialGradient id="paint0_radial_1016_20263" cx="0" cy="0" r="1" gradientUnits="userSpaceOnUse"
                        gradientTransform="translate(96.0256 50.8933) rotate(-149.676) scale(108.928)">
            <stop offset="0.504001" stop-color="#1F69FF"/>
            <stop offset="1" stop-color="white" stop-opacity="0"/>
        </radialGradient>
        <clipPath id="clip0_1016_20263">
            <rect width="152" height="152" fill="white"/>
        </clipPath>
    </defs>
</svg>
