<svg width="21" height="20" viewBox="0 0 21 20" fill="none" xmlns="http://www.w3.org/2000/svg">
<g id="material-symbols:generating-tokens-rounded" clip-path="url(#clip0_595_88135)">
<path id="Vector" d="M10.5 20C7.70833 20 5.34375 19.0313 3.40625 17.0938C1.46875 15.1563 0.5 12.7917 0.5 10C0.5 7.20833 1.46875 4.84375 3.40625 2.90625C5.34375 0.96875 7.70833 0 10.5 0C13.2917 0 15.6562 0.96875 17.5938 2.90625C19.5312 4.84375 20.5 7.20833 20.5 10C20.5 12.7917 19.5312 15.1563 17.5938 17.0938C15.6562 19.0313 13.2917 20 10.5 20ZM10.5 14.375C10.8542 14.375 11.1513 14.2554 11.3913 14.0163C11.6313 13.7771 11.7508 13.48 11.75 13.125V8.125H13.3125C13.5833 8.125 13.8071 8.03625 13.9837 7.85875C14.1604 7.68125 14.2492 7.4575 14.25 7.1875C14.25 6.91667 14.1612 6.69292 13.9837 6.51625C13.8062 6.33958 13.5825 6.25083 13.3125 6.25H7.6875C7.41667 6.25 7.19292 6.33875 7.01625 6.51625C6.83958 6.69375 6.75083 6.9175 6.75 7.1875C6.75 7.45833 6.83875 7.68208 7.01625 7.85875C7.19375 8.03542 7.4175 8.12417 7.6875 8.125H9.25V13.125C9.25 13.4792 9.37 13.7763 9.61 14.0163C9.85 14.2563 10.1467 14.3758 10.5 14.375Z" fill="#1EE3CF"/>
</g>
<defs>
<clipPath id="clip0_595_88135">
<rect width="20" height="20" fill="white" transform="translate(0.5)"/>
</clipPath>
</defs>
</svg>
