<svg width="20" height="20" viewBox="0 0 20 20" fill="none" xmlns="http://www.w3.org/2000/svg">
    <g clip-path="url(#clip0_981_88645)">
        <path fill-rule="evenodd" clip-rule="evenodd"
              d="M13.1451 1.69245C13.3391 1.74446 13.5046 1.87143 13.6051 2.04544L15.1358 4.69693H16.8181C17.22 4.69693 17.6054 4.85656 17.8895 5.14071C18.1737 5.42485 18.3333 5.81024 18.3333 6.21208V16.8181C18.3333 17.22 18.1737 17.6054 17.8895 17.8895C17.6054 18.1737 17.22 18.3333 16.8181 18.3333H3.18178C2.77994 18.3333 2.39455 18.1737 2.1104 17.8895C1.82626 17.6054 1.66663 17.22 1.66663 16.8181V6.21208C1.66663 5.81024 1.82626 5.42485 2.1104 5.14071C2.39455 4.85656 2.77993 4.69693 3.18178 4.69693H7.49724L12.5702 1.76812C12.7442 1.66766 12.951 1.64044 13.1451 1.69245ZM16.8181 12.6515V10.3787H14.2613C13.5461 10.3787 13.0303 10.922 13.0303 11.5151C13.0303 12.1082 13.5461 12.6515 14.2613 12.6515H16.8181ZM16.8181 8.8636H14.2613C12.7796 8.8636 11.5151 10.0166 11.5151 11.5151C11.5151 13.0137 12.7796 14.1666 14.2613 14.1666H16.8181V16.8181H3.18178V6.21208H16.8181V8.8636ZM10.5426 4.68825L13.383 4.69134L12.6717 3.45908L10.5426 4.68825Z"
              fill="#EAECEF"/>
    </g>
    <defs>
        <clipPath id="clip0_981_88645">
            <rect width="20" height="20" fill="white"/>
        </clipPath>
    </defs>
</svg>
