<svg width="40" height="40" viewBox="0 0 40 40" fill="none" xmlns="http://www.w3.org/2000/svg">
    <path fill-rule="evenodd" clip-rule="evenodd"
          d="M31.8113 12.7962C25.2894 6.40128 14.7126 6.40128 8.18971 12.7962V12.7961L7.32773 13.6401C7.1712 13.7921 7.08286 14.001 7.08286 14.2191C7.08286 14.4373 7.1712 14.6461 7.32773 14.7981L10.0137 17.4311C10.1781 17.5904 10.4393 17.5904 10.6037 17.4311L11.7607 16.2961C16.3106 11.8362 23.6904 11.8362 28.2403 16.2961L29.3213 17.3561C29.4857 17.5153 29.7469 17.5153 29.9113 17.3561L32.5963 14.7231C32.7525 14.5712 32.8406 14.3626 32.8406 14.1447C32.8406 13.9267 32.7525 13.7181 32.5963 13.5662L31.8113 12.7962ZM39.7551 20.583L37.3652 18.2401L37.3642 18.2391C37.0355 17.92 36.5128 17.92 36.1842 18.2391L28.5343 25.7369C28.4523 25.8169 28.3204 25.8169 28.2393 25.7369L20.5895 18.2391C20.2609 17.92 19.7381 17.92 19.4095 18.2391L11.7597 25.7369C11.6786 25.8169 11.5467 25.8169 11.4646 25.7369L3.81479 18.2391C3.48617 17.92 2.96345 17.92 2.63482 18.2391L0.244851 20.582C0.0883276 20.734 0 20.9429 0 21.161C0 21.3792 0.0883276 21.588 0.244851 21.74L11.0237 32.3058C11.3523 32.6248 11.875 32.6248 12.2036 32.3058L19.8525 24.8079C19.9347 24.7283 20.0653 24.7283 20.1475 24.8079L27.7974 32.3058C28.1261 32.6255 28.6496 32.6255 28.9783 32.3058L39.7551 21.741C39.9117 21.589 40 21.3802 40 21.162C40 20.9439 39.9117 20.735 39.7551 20.583Z"
          fill="#3B99FC"/>
</svg>
