<svg width="20" height="20" viewBox="0 0 20 20" fill="none" xmlns="http://www.w3.org/2000/svg">
    <g clip-path="url(#clip0_2211_966)">
        <path d="M10 20C7.20833 20 4.84375 19.0313 2.90625 17.0938C0.96875 15.1563 0 12.7917 0 10C0 7.20833 0.96875 4.84375 2.90625 2.90625C4.84375 0.96875 7.20833 0 10 0C12.7917 0 15.1562 0.96875 17.0938 2.90625C19.0312 4.84375 20 7.20833 20 10C20 12.7917 19.0312 15.1563 17.0938 17.0938C15.1562 19.0313 12.7917 20 10 20ZM10 14.375C10.3542 14.375 10.6513 14.2554 10.8913 14.0163C11.1313 13.7771 11.2508 13.48 11.25 13.125V8.125H12.8125C13.0833 8.125 13.3071 8.03625 13.4837 7.85875C13.6604 7.68125 13.7492 7.4575 13.75 7.1875C13.75 6.91667 13.6612 6.69292 13.4837 6.51625C13.3062 6.33958 13.0825 6.25083 12.8125 6.25H7.1875C6.91667 6.25 6.69292 6.33875 6.51625 6.51625C6.33958 6.69375 6.25083 6.9175 6.25 7.1875C6.25 7.45833 6.33875 7.68208 6.51625 7.85875C6.69375 8.03542 6.9175 8.12417 7.1875 8.125H8.75V13.125C8.75 13.4792 8.87 13.7763 9.11 14.0163C9.35 14.2563 9.64667 14.3758 10 14.375Z" fill="#FFE923"/>
        <circle cx="10" cy="10" r="6" fill="#FFE923"/>
        <circle cx="10" cy="10" r="6" fill="#FFE923" stroke="black" stroke-width="2"/>
    </g>
    <defs>
        <clipPath id="clip0_2211_966">
            <rect width="20" height="20" fill="white"/>
        </clipPath>
    </defs>
</svg>
